<svg width="25" height="24" viewBox="0 0 25 24" fill="none" xmlns="http://www.w3.org/2000/svg">
<path d="M18.5 10V7C18.5 6.46957 18.2893 5.96086 17.9142 5.58579C17.5391 5.21071 17.0304 5 16.5 5H8.5C7.96957 5 7.46086 5.21071 7.08579 5.58579C6.71071 5.96086 6.5 6.46957 6.5 7V10C5.96957 10 5.46086 10.2107 5.08579 10.5858C4.71071 10.9609 4.5 11.4696 4.5 12V17H5.83L6.5 19H7.5L8.17 17H16.83L17.5 19H18.5L19.17 17H20.5V12C20.5 11.4696 20.2893 10.9609 19.9142 10.5858C19.5391 10.2107 19.0304 10 18.5 10ZM11.5 10H8.5V7H11.5M16.5 10H13.5V7H16.5V10Z" fill="#2D2D2D"/>
</svg>
